<svg width="120" height="30" viewBox="0 0 120 30" fill="none" xmlns="http://www.w3.org/2000/svg">
<style>
    .caliope-text {
        fill: #34388D; /* Deep Blue */
    }
    .caliope-accent {
        fill: #8ECC98; /* Muted Green */
    }
    @media (prefers-color-scheme: dark) {
        .caliope-text {
            fill: #F5F5F5; /* Light Blue/White for dark mode */
        }
    }
</style>
<path class="caliope-accent" d="M15.333 0C7.03333 0 0 7.03333 0 15.333C0 23.6333 7.03333 30 15.333 30C16.9 30 18.3333 29.8333 19.6667 29.4333C15.1 26.6333 12.3 21.6 12.3 15.6333C12.3 9.66667 15.1 4.63333 19.6667 1.83333C18.3333 1.43333 16.9 1.26667 15.3333 1.26667" fill="#8ECC98"/>
<path class="caliope-text" d="M30.6387 23.6V7.13333H34.4253V15.15C35.092 14.35 35.892 13.75 36.8253 13.35C37.7587 12.95 38.8253 12.75 40.0253 12.75C41.4587 12.75 42.692 13.0667 43.7253 13.7C44.7587 14.3333 45.492 15.2 45.9253 16.3C46.4253 17.3333 46.6587 18.5333 46.6253 19.9V23.6H42.8387V20.15C42.8387 19.15 42.6587 18.3833 42.3253 17.85C41.992 17.25 41.5253 16.8 40.9253 16.5C40.3253 16.1333 39.5753 15.95 38.6753 15.95C37.7753 15.95 37.042 16.15 36.4753 16.55C35.9087 16.95 35.5087 17.5 35.2753 18.2C35.042 18.9 34.9253 19.7 34.9253 20.6V23.6H30.6387ZM54.512 23.6V13H50.8453V23.6H54.512ZM52.6787 10.7C53.312 10.7 53.812 10.5 54.1787 10.1C54.612 9.7 54.8453 9.16667 54.8453 8.5C54.8453 7.83333 54.612 7.3 54.1787 6.9C53.812 6.5 53.312 6.3 52.6787 6.3C52.0453 6.3 51.5453 6.5 51.1787 6.9C50.812 7.3 50.6453 7.83333 50.6453 8.5C50.6453 9.16667 50.812 9.7 51.1787 10.1C51.5453 10.5 52.0453 10.7 52.6787 10.7ZM66.4211 23.8C65.0544 23.8 63.8878 23.4833 62.9211 22.85C61.9544 22.2167 61.2878 21.3667 60.9211 20.3L64.2878 19.2C64.3544 19.5333 64.5378 19.8333 64.8378 20.1C65.1378 20.3667 65.4878 20.55 65.8878 20.65C66.2878 20.75 66.6878 20.8 67.0878 20.8C67.7544 20.8 68.2711 20.65 68.6378 20.35C69.0044 20 69.1878 19.6 69.1878 19.15C69.1878 18.75 69.0544 18.4167 68.7878 18.15C68.5211 17.8167 68.1211 17.55 67.5878 17.35L65.7544 16.75C65.1544 16.55 64.5878 16.2833 64.0544 15.95C63.5211 15.55 63.1211 15.05 62.8544 14.45C62.5878 13.7833 62.4544 13.05 62.4544 12.25C62.4544 11.45 62.6378 10.75 63.0044 10.15C63.3711 9.55 63.8878 9.1 64.5544 8.8C65.2211 8.5 66.0044 8.35 66.8878 8.35C67.9544 8.35 68.9044 8.56667 69.7378 9C70.5711 9.43333 71.2211 10.05 71.6878 10.85L68.5544 12.1C68.3544 11.7667 68.1044 11.5167 67.8044 11.35C67.5044 11.1833 67.1544 11.1 66.7544 11.1C66.1544 11.1 65.6878 11.25 65.3544 11.55C65.0211 11.85 64.8544 12.1833 64.8544 12.55C64.8544 12.9167 64.9878 13.25 65.2544 13.55C65.5211 13.7833 65.9044 14.0167 66.4044 14.25L68.3211 15C69.3211 15.4 70.1211 15.8667 70.7211 16.4C71.3211 16.9333 71.6211 17.65 71.6211 18.55C71.6211 19.45 71.4044 20.25 70.9711 20.95C70.5378 21.65 69.9211 22.2167 69.1211 22.65C68.3211 23.0833 67.4211 23.3 66.4211 23.3V23.8ZM81.242 23.6C79.8086 23.6 78.5653 23.25 77.512 22.55C76.4586 21.7833 75.6719 20.7833 75.1553 19.55L78.6886 18.3C78.9219 19.1667 79.4386 19.8333 80.2386 20.3C81.0386 20.7667 81.9386 21 82.9386 21C84.3053 21 85.3386 20.6 86.0386 19.8C86.7386 18.9333 87.0886 17.7667 87.0886 16.3V7.13333H90.7553V16.1C90.7553 17.9 90.3386 19.4 89.5053 20.6C88.6719 21.7333 87.5219 22.5833 86.0553 23.15C84.5886 23.65 82.9553 23.9 81.1553 23.9L81.242 23.6ZM98.9231 23.6C97.1231 23.6 95.6498 23.1167 94.5031 22.15C93.3565 21.1833 92.7831 19.8667 92.7831 18.2C92.7831 16.5333 93.3565 15.2167 94.5031 14.25C95.6498 13.2833 97.1231 12.8 98.9231 12.8C100.723 12.8 102.196 13.2833 103.343 14.25C104.49 15.2167 105.063 16.5333 105.063 18.2C105.063 19.8667 104.49 21.1833 103.343 22.15C102.196 23.1167 100.723 23.6 98.9231 23.6ZM98.9231 20.7C99.8565 20.7 100.623 20.4333 101.223 19.9C101.823 19.3667 102.123 18.6667 102.123 17.8C102.123 16.9333 101.823 16.2333 101.223 15.7C100.623 15.1667 99.8565 14.9 98.9231 14.9C97.9898 14.9 97.2231 15.1667 96.6231 15.7C96.0231 16.2333 95.7231 16.9333 95.7231 17.8C95.7231 18.6667 96.0231 19.3667 96.6231 19.9C97.2231 20.4333 97.9898 20.7 98.9231 20.7ZM114.912 23.6L108.645 13H112.778L116.565 19.8L120.352 13H124.418L118.152 23.6H114.912Z" fill="#34388D"/>
</svg>
