<svg width="256" height="256" viewBox="0 0 256 256" fill="none" xmlns="http://www.w3.org/2000/svg">
<style>
    path { fill: #4a7c59; }
    @media (prefers-color-scheme: dark) {
        path { fill: #86c196; }
    }
</style>
<path d="M128 24C65.78 24 16 73.78 16 136s49.78 112 112 112c62.22 0 112-49.78 112-112S190.22 24 128 24zm42.68 184.26c-17.56 11.24-38.34 17.74-60.68 17.74-45.42 0-84.3-28.94-101.4-69.34 11.36-32.96 41.52-56.66 77.4-56.66 22.34 0 42.92 8.5 58.68 22.64-15.68-12.28-36.04-19.64-58.68-19.64-32.94 0-61.26 20.68-74.46 49.32-2.28-12.06-3.54-24.54-3.54-37.32 0-50.38 34.34-92.12 80-106.64 2.82 25.02 14.36 47.96 32.66 64.92 1.44-2.12 2.8-4.28 4.08-6.5 17.58-30.82 49.2-52.12 85.32-52.12v18.72c-29.28 0-55.82 16.56-70.36 41.86C147.22 135.5 140.2 153.2 128 168c-10.22 12.38-23.22 22.64-38.38 29.84C97.16 163.56 126.86 144 128 144c20.34 0 38.92 12.56 46.68 31.06-1.58 3.52-3.4 6.88-5.44 10.08C165.34 194.62 153.6 202.9 140.34 208c10.3-3.64 19.9-8.48 28.66-14.4C178.68 187.94 180.24 179.36 170.68 208.26z"/>
</svg>
